<svg width="301" height="301" viewBox="0 0 301 301" fill="none" xmlns="http://www.w3.org/2000/svg">
  <path d="M207.146 67.835L83.8623 112.545L95.8776 70.1283L217.141 25.7151L207.146 67.835Z" fill="url(#paint0_linear_63_108)"/>
  <path d="M79.7192 168.603L126.104 151.008L178.354 185.664L129.837 201.755L79.7192 168.603Z" fill="#D9D9D9"/>
  <path d="M91.9824 127.549L178.355 185.664L129.837 201.659L79.7196 168.603L91.9824 127.549Z" fill="url(#paint1_linear_63_108)"/>
  <path d="M142.1 161.138L79.7197 168.603L91.9824 127.549L142.1 161.138Z" fill="#D6A91E"/>
  <path d="M108.071 266.842H107.075C107 266.471 106.866 266.128 106.672 265.814C106.481 265.496 106.241 265.218 105.951 264.982C105.661 264.745 105.332 264.561 104.965 264.43C104.597 264.299 104.2 264.234 103.772 264.234C103.086 264.234 102.461 264.413 101.895 264.77C101.333 265.126 100.883 265.651 100.543 266.344C100.208 267.033 100.04 267.878 100.04 268.878C100.04 269.885 100.208 270.734 100.543 271.423C100.883 272.112 101.333 272.635 101.895 272.992C102.461 273.345 103.086 273.522 103.772 273.522C104.2 273.522 104.597 273.457 104.965 273.326C105.332 273.195 105.661 273.013 105.951 272.78C106.241 272.543 106.481 272.266 106.672 271.948C106.866 271.629 107 271.285 107.075 270.914H108.071C107.983 271.412 107.817 271.877 107.573 272.308C107.333 272.736 107.025 273.11 106.651 273.432C106.279 273.754 105.852 274.004 105.368 274.185C104.883 274.365 104.352 274.455 103.772 274.455C102.86 274.455 102.051 274.227 101.344 273.771C100.637 273.312 100.082 272.665 99.6793 271.831C99.2799 270.997 99.0802 270.013 99.0802 268.878C99.0802 267.744 99.2799 266.759 99.6793 265.925C100.082 265.091 100.637 264.446 101.344 263.99C102.051 263.531 102.86 263.301 103.772 263.301C104.352 263.301 104.883 263.391 105.368 263.571C105.852 263.748 106.279 263.999 106.651 264.324C107.025 264.646 107.333 265.02 107.573 265.448C107.817 265.876 107.983 266.34 108.071 266.842ZM113.369 274.476C112.665 274.476 112.043 274.298 111.503 273.941C110.965 273.584 110.545 273.091 110.241 272.462C109.937 271.829 109.785 271.099 109.785 270.272C109.785 269.438 109.937 268.705 110.241 268.072C110.545 267.436 110.965 266.941 111.503 266.588C112.043 266.231 112.665 266.052 113.369 266.052C114.072 266.052 114.692 266.231 115.229 266.588C115.767 266.945 116.187 267.44 116.491 268.072C116.799 268.705 116.952 269.438 116.952 270.272C116.952 271.099 116.8 271.829 116.496 272.462C116.192 273.091 115.77 273.584 115.229 273.941C114.692 274.298 114.072 274.476 113.369 274.476ZM113.369 273.612C113.934 273.612 114.413 273.46 114.805 273.156C115.198 272.852 115.494 272.448 115.696 271.942C115.901 271.437 116.003 270.88 116.003 270.272C116.003 269.664 115.901 269.106 115.696 268.597C115.494 268.088 115.198 267.68 114.805 267.372C114.413 267.065 113.934 266.911 113.369 266.911C112.807 266.911 112.328 267.065 111.932 267.372C111.54 267.68 111.241 268.088 111.036 268.597C110.835 269.106 110.734 269.664 110.734 270.272C110.734 270.88 110.835 271.437 111.036 271.942C111.241 272.448 111.54 272.852 111.932 273.156C112.324 273.46 112.803 273.612 113.369 273.612ZM121.955 274.476C121.288 274.476 120.703 274.3 120.201 273.946C119.699 273.593 119.307 273.1 119.024 272.467C118.745 271.834 118.605 271.098 118.605 270.256C118.605 269.419 118.745 268.685 119.024 268.056C119.307 267.424 119.701 266.932 120.206 266.583C120.711 266.229 121.3 266.052 121.971 266.052C122.466 266.052 122.878 266.141 123.207 266.318C123.535 266.491 123.799 266.706 123.996 266.964C124.194 267.222 124.348 267.473 124.458 267.717H124.543V263.45H125.491V274.307H124.569V272.796H124.458C124.348 273.043 124.193 273.298 123.991 273.559C123.79 273.817 123.523 274.035 123.191 274.211C122.862 274.388 122.45 274.476 121.955 274.476ZM122.067 273.612C122.593 273.612 123.042 273.469 123.413 273.183C123.784 272.893 124.067 272.495 124.262 271.99C124.459 271.481 124.558 270.898 124.558 270.241C124.558 269.59 124.461 269.016 124.267 268.518C124.072 268.016 123.79 267.623 123.419 267.341C123.048 267.054 122.597 266.911 122.067 266.911C121.523 266.911 121.063 267.06 120.688 267.357C120.317 267.65 120.035 268.048 119.84 268.549C119.649 269.051 119.554 269.615 119.554 270.241C119.554 270.873 119.651 271.444 119.846 271.953C120.04 272.462 120.323 272.866 120.694 273.167C121.068 273.464 121.526 273.612 122.067 273.612ZM131.471 274.476C130.712 274.476 130.054 274.3 129.499 273.946C128.944 273.589 128.515 273.096 128.211 272.467C127.911 271.834 127.76 271.106 127.76 270.283C127.76 269.463 127.911 268.735 128.211 268.099C128.515 267.459 128.934 266.959 129.467 266.598C130.005 266.234 130.625 266.052 131.328 266.052C131.77 266.052 132.196 266.134 132.606 266.296C133.016 266.455 133.383 266.701 133.709 267.033C134.037 267.362 134.297 267.777 134.488 268.279C134.679 268.777 134.774 269.368 134.774 270.05V270.516H128.413V269.684H133.809C133.809 269.161 133.703 268.691 133.491 268.274C133.283 267.853 132.991 267.521 132.616 267.277C132.245 267.033 131.816 266.911 131.328 266.911C130.812 266.911 130.358 267.049 129.966 267.325C129.574 267.6 129.266 267.964 129.043 268.417C128.824 268.869 128.713 269.364 128.709 269.901V270.4C128.709 271.046 128.821 271.612 129.043 272.096C129.27 272.577 129.589 272.949 130.003 273.215C130.416 273.48 130.906 273.612 131.471 273.612C131.857 273.612 132.194 273.552 132.484 273.432C132.777 273.312 133.023 273.151 133.221 272.949C133.422 272.745 133.574 272.52 133.677 272.276L134.573 272.568C134.449 272.911 134.246 273.227 133.963 273.517C133.684 273.807 133.334 274.04 132.913 274.217C132.496 274.39 132.016 274.476 131.471 274.476ZM144.26 266.164V266.985H140.374V266.164H144.26ZM141.588 264.213H142.537V272.181C142.537 272.52 142.595 272.787 142.712 272.981C142.828 273.172 142.98 273.308 143.167 273.39C143.355 273.467 143.554 273.506 143.767 273.506C143.89 273.506 143.996 273.499 144.085 273.485C144.173 273.467 144.251 273.45 144.318 273.432L144.519 274.285C144.427 274.321 144.314 274.353 144.18 274.381C144.046 274.413 143.88 274.429 143.682 274.429C143.335 274.429 143.001 274.353 142.68 274.201C142.362 274.049 142.1 273.822 141.895 273.522C141.69 273.222 141.588 272.849 141.588 272.403V264.213ZM147.521 269.217V274.307H146.578V263.45H147.521V267.441H147.606C147.797 267.021 148.092 266.685 148.491 266.434C148.894 266.183 149.403 266.058 150.018 266.058C150.569 266.058 151.054 266.171 151.471 266.397C151.888 266.623 152.213 266.957 152.446 267.399C152.679 267.841 152.796 268.385 152.796 269.032V274.307H151.847V269.09C151.847 268.419 151.66 267.89 151.285 267.505C150.914 267.116 150.412 266.922 149.78 266.922C149.345 266.922 148.958 267.014 148.619 267.198C148.279 267.381 148.011 267.646 147.813 267.993C147.618 268.336 147.521 268.744 147.521 269.217ZM158.573 274.476C157.813 274.476 157.156 274.3 156.601 273.946C156.046 273.589 155.617 273.096 155.313 272.467C155.012 271.834 154.862 271.106 154.862 270.283C154.862 269.463 155.012 268.735 155.313 268.099C155.617 267.459 156.036 266.959 156.569 266.598C157.106 266.234 157.727 266.052 158.43 266.052C158.872 266.052 159.298 266.134 159.708 266.296C160.118 266.455 160.485 266.701 160.81 267.033C161.139 267.362 161.399 267.777 161.59 268.279C161.78 268.777 161.876 269.368 161.876 270.05V270.516H155.514V269.684H160.911C160.911 269.161 160.805 268.691 160.593 268.274C160.384 267.853 160.093 267.521 159.718 267.277C159.347 267.033 158.918 266.911 158.43 266.911C157.914 266.911 157.46 267.049 157.068 267.325C156.675 267.6 156.368 267.964 156.145 268.417C155.926 268.869 155.815 269.364 155.811 269.901V270.4C155.811 271.046 155.922 271.612 156.145 272.096C156.371 272.577 156.691 272.949 157.105 273.215C157.518 273.48 158.008 273.612 158.573 273.612C158.958 273.612 159.296 273.552 159.586 273.432C159.879 273.312 160.125 273.151 160.323 272.949C160.524 272.745 160.676 272.52 160.778 272.276L161.674 272.568C161.551 272.911 161.348 273.227 161.065 273.517C160.786 273.807 160.436 274.04 160.015 274.217C159.598 274.39 159.117 274.476 158.573 274.476ZM171.086 274.476C170.418 274.476 169.833 274.3 169.331 273.946C168.829 273.593 168.437 273.1 168.154 272.467C167.875 271.834 167.735 271.098 167.735 270.256C167.735 269.419 167.875 268.685 168.154 268.056C168.437 267.424 168.831 266.932 169.336 266.583C169.842 266.229 170.43 266.052 171.102 266.052C171.596 266.052 172.008 266.141 172.337 266.318C172.665 266.491 172.929 266.706 173.127 266.964C173.325 267.222 173.478 267.473 173.588 267.717H173.673V263.45H174.622V274.307H173.699V272.796H173.588C173.478 273.043 173.323 273.298 173.121 273.559C172.92 273.817 172.653 274.035 172.321 274.211C171.992 274.388 171.58 274.476 171.086 274.476ZM171.197 273.612C171.724 273.612 172.172 273.469 172.543 273.183C172.915 272.893 173.197 272.495 173.392 271.99C173.59 271.481 173.689 270.898 173.689 270.241C173.689 269.59 173.591 269.016 173.397 268.518C173.203 268.016 172.92 267.623 172.549 267.341C172.178 267.054 171.727 266.911 171.197 266.911C170.653 266.911 170.193 267.06 169.819 267.357C169.447 267.65 169.165 268.048 168.97 268.549C168.78 269.051 168.684 269.615 168.684 270.241C168.684 270.873 168.781 271.444 168.976 271.953C169.17 272.462 169.453 272.866 169.824 273.167C170.199 273.464 170.656 273.612 171.197 273.612ZM177.309 274.307V266.164H178.227V267.415H178.295C178.458 267.005 178.741 266.674 179.144 266.424C179.55 266.169 180.01 266.042 180.522 266.042C180.6 266.042 180.686 266.044 180.782 266.047C180.877 266.051 180.957 266.054 181.02 266.058V267.017C180.978 267.01 180.904 267 180.798 266.985C180.692 266.971 180.577 266.964 180.453 266.964C180.029 266.964 179.651 267.054 179.319 267.235C178.99 267.411 178.73 267.657 178.539 267.972C178.348 268.286 178.253 268.645 178.253 269.048V274.307H177.309ZM185.675 274.476C184.915 274.476 184.258 274.3 183.703 273.946C183.148 273.589 182.719 273.096 182.415 272.467C182.114 271.834 181.964 271.106 181.964 270.283C181.964 269.463 182.114 268.735 182.415 268.099C182.719 267.459 183.137 266.959 183.671 266.598C184.208 266.234 184.828 266.052 185.532 266.052C185.974 266.052 186.399 266.134 186.809 266.296C187.219 266.455 187.587 266.701 187.912 267.033C188.241 267.362 188.501 267.777 188.691 268.279C188.882 268.777 188.978 269.368 188.978 270.05V270.516H182.616V269.684H188.013C188.013 269.161 187.907 268.691 187.695 268.274C187.486 267.853 187.195 267.521 186.82 267.277C186.449 267.033 186.019 266.911 185.532 266.911C185.016 266.911 184.562 267.049 184.169 267.325C183.777 267.6 183.47 267.964 183.247 268.417C183.028 268.869 182.916 269.364 182.913 269.901V270.4C182.913 271.046 183.024 271.612 183.247 272.096C183.473 272.577 183.793 272.949 184.206 273.215C184.62 273.48 185.109 273.612 185.675 273.612C186.06 273.612 186.398 273.552 186.687 273.432C186.981 273.312 187.226 273.151 187.424 272.949C187.626 272.745 187.778 272.52 187.88 272.276L188.776 272.568C188.652 272.911 188.449 273.227 188.167 273.517C187.887 273.807 187.537 274.04 187.117 274.217C186.7 274.39 186.219 274.476 185.675 274.476ZM193.331 274.492C192.84 274.492 192.391 274.397 191.985 274.206C191.578 274.012 191.255 273.732 191.015 273.368C190.774 273.001 190.654 272.555 190.654 272.032C190.654 271.629 190.73 271.29 190.882 271.015C191.034 270.739 191.25 270.513 191.529 270.336C191.808 270.159 192.139 270.02 192.52 269.917C192.902 269.815 193.323 269.735 193.782 269.679C194.238 269.622 194.623 269.573 194.938 269.53C195.256 269.488 195.498 269.421 195.664 269.329C195.83 269.237 195.913 269.088 195.913 268.883V268.693C195.913 268.138 195.747 267.701 195.415 267.383C195.086 267.061 194.612 266.901 193.994 266.901C193.407 266.901 192.928 267.03 192.557 267.288C192.19 267.546 191.932 267.85 191.783 268.2L190.887 267.876C191.071 267.431 191.326 267.076 191.651 266.811C191.976 266.542 192.34 266.349 192.743 266.233C193.146 266.113 193.554 266.052 193.968 266.052C194.279 266.052 194.602 266.093 194.938 266.174C195.277 266.256 195.591 266.397 195.881 266.598C196.171 266.796 196.406 267.074 196.586 267.431C196.767 267.784 196.857 268.233 196.857 268.777V274.307H195.913V273.018H195.855C195.742 273.259 195.574 273.492 195.351 273.718C195.128 273.944 194.849 274.13 194.514 274.275C194.178 274.42 193.784 274.492 193.331 274.492ZM193.459 273.628C193.96 273.628 194.395 273.517 194.763 273.294C195.13 273.071 195.413 272.776 195.611 272.409C195.812 272.038 195.913 271.629 195.913 271.184V270.007C195.842 270.074 195.724 270.134 195.558 270.188C195.395 270.241 195.206 270.288 194.991 270.331C194.779 270.37 194.567 270.403 194.355 270.431C194.142 270.46 193.952 270.484 193.782 270.506C193.323 270.562 192.93 270.65 192.605 270.771C192.28 270.891 192.031 271.057 191.858 271.269C191.684 271.477 191.598 271.746 191.598 272.075C191.598 272.57 191.775 272.953 192.128 273.225C192.481 273.494 192.925 273.628 193.459 273.628ZM199.367 274.307V266.164H200.284V267.415H200.369C200.531 266.994 200.802 266.664 201.18 266.424C201.562 266.18 202.019 266.058 202.553 266.058C203.115 266.058 203.576 266.19 203.937 266.455C204.301 266.717 204.573 267.077 204.753 267.537H204.822C205.006 267.084 205.304 266.726 205.718 266.461C206.135 266.192 206.64 266.058 207.234 266.058C207.99 266.058 208.588 266.296 209.026 266.773C209.464 267.247 209.683 267.94 209.683 268.852V274.307H208.74V268.852C208.74 268.208 208.575 267.726 208.247 267.404C207.918 267.083 207.485 266.922 206.948 266.922C206.326 266.922 205.847 267.113 205.511 267.494C205.175 267.876 205.008 268.36 205.008 268.947V274.307H204.043V268.767C204.043 268.215 203.889 267.77 203.581 267.431C203.274 267.092 202.841 266.922 202.283 266.922C201.908 266.922 201.571 267.014 201.27 267.198C200.973 267.381 200.738 267.638 200.565 267.966C200.395 268.291 200.311 268.666 200.311 269.09V274.307H199.367Z" fill="#8F8F8F"/>
  <path d="M85.9711 254.654V226.735H103.284V230.362H90.1834V238.868H102.043V242.48H90.1834V254.654H85.9711ZM120.474 238.922V242.467H108.096V238.922H120.474ZM149.421 235.814H145.168C145.005 234.906 144.7 234.106 144.255 233.415C143.809 232.724 143.264 232.138 142.619 231.657C141.974 231.175 141.251 230.811 140.451 230.566C139.661 230.321 138.82 230.198 137.93 230.198C136.321 230.198 134.881 230.602 133.608 231.411C132.345 232.22 131.345 233.406 130.609 234.969C129.882 236.532 129.519 238.441 129.519 240.695C129.519 242.967 129.882 244.884 130.609 246.447C131.345 248.01 132.349 249.192 133.622 249.992C134.894 250.791 136.325 251.191 137.916 251.191C138.797 251.191 139.634 251.073 140.424 250.837C141.224 250.591 141.946 250.232 142.592 249.76C143.237 249.287 143.782 248.71 144.228 248.029C144.682 247.338 144.995 246.547 145.168 245.657L149.421 245.67C149.194 247.043 148.753 248.306 148.099 249.46C147.454 250.605 146.622 251.596 145.604 252.432C144.596 253.259 143.441 253.9 142.142 254.354C140.842 254.808 139.425 255.036 137.889 255.036C135.471 255.036 133.317 254.463 131.427 253.318C129.537 252.164 128.046 250.514 126.956 248.369C125.874 246.225 125.334 243.666 125.334 240.695C125.334 237.714 125.879 235.155 126.969 233.02C128.06 230.875 129.55 229.23 131.441 228.085C133.331 226.931 135.48 226.354 137.889 226.354C139.37 226.354 140.751 226.567 142.033 226.994C143.323 227.413 144.482 228.03 145.509 228.848C146.536 229.657 147.386 230.648 148.058 231.82C148.731 232.983 149.185 234.315 149.421 235.814ZM162.954 255.076C160.991 255.076 159.278 254.627 157.815 253.727C156.352 252.827 155.216 251.568 154.407 249.951C153.598 248.333 153.194 246.443 153.194 244.28C153.194 242.108 153.598 240.208 154.407 238.582C155.216 236.955 156.352 235.692 157.815 234.792C159.278 233.892 160.991 233.442 162.954 233.442C164.917 233.442 166.631 233.892 168.094 234.792C169.557 235.692 170.693 236.955 171.502 238.582C172.311 240.208 172.715 242.108 172.715 244.28C172.715 246.443 172.311 248.333 171.502 249.951C170.693 251.568 169.557 252.827 168.094 253.727C166.631 254.627 164.917 255.076 162.954 255.076ZM162.968 251.655C164.24 251.655 165.295 251.319 166.131 250.646C166.967 249.973 167.585 249.078 167.985 247.96C168.394 246.843 168.598 245.611 168.598 244.266C168.598 242.93 168.394 241.703 167.985 240.586C167.585 239.459 166.967 238.554 166.131 237.873C165.295 237.191 164.24 236.85 162.968 236.85C161.687 236.85 160.623 237.191 159.778 237.873C158.942 238.554 158.32 239.459 157.911 240.586C157.511 241.703 157.311 242.93 157.311 244.266C157.311 245.611 157.511 246.843 157.911 247.96C158.32 249.078 158.942 249.973 159.778 250.646C160.623 251.319 161.687 251.655 162.968 251.655ZM185.103 255.063C183.413 255.063 181.904 254.631 180.577 253.768C179.26 252.895 178.223 251.655 177.469 250.046C176.724 248.429 176.351 246.488 176.351 244.225C176.351 241.962 176.728 240.027 177.483 238.418C178.246 236.81 179.291 235.578 180.618 234.724C181.945 233.87 183.449 233.442 185.13 233.442C186.43 233.442 187.475 233.661 188.266 234.097C189.065 234.524 189.683 235.024 190.12 235.596C190.565 236.169 190.91 236.673 191.156 237.109H191.401V226.735H195.477V254.654H191.497V251.396H191.156C190.91 251.841 190.556 252.35 190.092 252.923C189.638 253.495 189.011 253.995 188.211 254.422C187.411 254.849 186.375 255.063 185.103 255.063ZM186.003 251.587C187.175 251.587 188.166 251.278 188.975 250.66C189.793 250.033 190.41 249.165 190.829 248.056C191.256 246.947 191.469 245.657 191.469 244.184C191.469 242.73 191.26 241.458 190.842 240.367C190.424 239.277 189.811 238.427 189.002 237.818C188.193 237.209 187.193 236.905 186.003 236.905C184.776 236.905 183.754 237.223 182.936 237.859C182.118 238.495 181.5 239.363 181.082 240.463C180.673 241.563 180.468 242.803 180.468 244.184C180.468 245.584 180.677 246.843 181.095 247.96C181.513 249.078 182.131 249.964 182.949 250.619C183.776 251.264 184.794 251.587 186.003 251.587ZM210.319 255.076C208.256 255.076 206.479 254.636 204.989 253.754C203.507 252.863 202.362 251.614 201.554 250.005C200.754 248.388 200.354 246.493 200.354 244.321C200.354 242.176 200.754 240.286 201.554 238.65C202.362 237.014 203.489 235.737 204.934 234.819C206.388 233.901 208.088 233.442 210.033 233.442C211.214 233.442 212.359 233.638 213.468 234.029C214.577 234.419 215.572 235.033 216.453 235.869C217.335 236.705 218.03 237.791 218.539 239.127C219.048 240.454 219.302 242.067 219.302 243.966V245.411H202.658V242.358H215.308C215.308 241.285 215.09 240.336 214.654 239.509C214.218 238.673 213.604 238.014 212.814 237.532C212.032 237.05 211.114 236.81 210.06 236.81C208.915 236.81 207.915 237.091 207.061 237.655C206.216 238.209 205.561 238.936 205.098 239.836C204.643 240.726 204.416 241.694 204.416 242.739V245.125C204.416 246.525 204.662 247.715 205.152 248.697C205.652 249.678 206.347 250.428 207.238 250.946C208.129 251.455 209.169 251.709 210.36 251.709C211.132 251.709 211.837 251.6 212.473 251.382C213.109 251.155 213.659 250.819 214.122 250.373C214.586 249.928 214.94 249.378 215.186 248.724L219.043 249.419C218.734 250.555 218.18 251.55 217.38 252.405C216.59 253.25 215.594 253.909 214.395 254.381C213.204 254.845 211.846 255.076 210.319 255.076Z" fill="#374141"/>
  <path d="M186.352 130.215L199.148 87.0288L91.9824 127.549L79.7196 168.603L186.352 130.215Z" fill="url(#paint2_linear_63_108)"/>
  <path d="M192.217 109.955L199.148 87.0288L91.9823 127.549L89.3165 136.613L192.217 109.955Z" fill="url(#paint3_linear_63_108)"/>
  <defs>
    <linearGradient id="paint0_linear_63_108" x1="84.5181" y1="100.891" x2="218.342" y2="37.4447" gradientUnits="userSpaceOnUse">
      <stop stop-color="#2DB656"/>
      <stop offset="1" stop-color="#74DC65"/>
    </linearGradient>
    <linearGradient id="paint1_linear_63_108" x1="99.9798" y1="151.008" x2="144.765" y2="190.462" gradientUnits="userSpaceOnUse">
      <stop offset="0.0652429" stop-color="#E3B525"/>
      <stop offset="0.789675" stop-color="#FFC81B"/>
    </linearGradient>
    <linearGradient id="paint2_linear_63_108" x1="139.434" y1="103.024" x2="159.161" y2="150.475" gradientUnits="userSpaceOnUse">
      <stop offset="0.167047" stop-color="#1D8D2B"/>
      <stop offset="0.43085" stop-color="#2DA150"/>
      <stop offset="0.807736" stop-color="#2BB857"/>
    </linearGradient>
    <linearGradient id="paint3_linear_63_108" x1="139.434" y1="103.024" x2="159.161" y2="150.475" gradientUnits="userSpaceOnUse">
      <stop offset="0.0581062" stop-color="#218F2F"/>
    </linearGradient>
  </defs>
</svg>
