<svg width="29" height="35" viewBox="0 0 29 35" fill="none" xmlns="http://www.w3.org/2000/svg">
  <path d="M24.6023 7.64222L2.23381 15.7545L4.41386 8.05832L26.4158 0L24.6023 7.64222Z" fill="url(#paint0_linear_63_380)"/>
  <path d="M1.48206 25.9254L9.89818 22.7331L19.3784 29.021L10.5753 31.9406L1.48206 25.9254Z" fill="#D9D9D9"/>
  <path d="M3.70688 18.4768L19.3783 29.0211L10.5752 31.9232L1.48193 25.9256L3.70688 18.4768Z" fill="url(#paint1_linear_63_380)"/>
  <path d="M12.8003 24.5712L1.48205 25.9255L3.707 18.4768L12.8003 24.5712Z" fill="#D6A91E"/>
  <path d="M20.8293 18.9605L23.151 11.1248L3.70688 18.4768L1.48193 25.9255L20.8293 18.9605Z" fill="url(#paint2_linear_63_380)"/>
  <path d="M21.8936 15.2844L23.1512 11.1248L3.70707 18.4768L3.22339 20.1213L21.8936 15.2844Z" fill="url(#paint3_linear_63_380)"/>
  <defs>
    <linearGradient id="paint0_linear_63_380" x1="2.3528" y1="13.6399" x2="26.6338" y2="2.12821" gradientUnits="userSpaceOnUse">
      <stop stop-color="#2DB656"/>
      <stop offset="1" stop-color="#74DC65"/>
    </linearGradient>
    <linearGradient id="paint1_linear_63_380" x1="5.15794" y1="22.7332" x2="13.2838" y2="29.8918" gradientUnits="userSpaceOnUse">
      <stop offset="0.0652429" stop-color="#E3B525"/>
      <stop offset="0.789675" stop-color="#FFC81B"/>
    </linearGradient>
    <linearGradient id="paint2_linear_63_380" x1="12.3165" y1="14.0269" x2="15.8957" y2="22.6365" gradientUnits="userSpaceOnUse">
      <stop offset="0.167047" stop-color="#1D8D2B"/>
      <stop offset="0.43085" stop-color="#2DA150"/>
      <stop offset="0.807736" stop-color="#2BB857"/>
    </linearGradient>
    <linearGradient id="paint3_linear_63_380" x1="12.3167" y1="14.0269" x2="15.8959" y2="22.6365" gradientUnits="userSpaceOnUse">
      <stop offset="0.0581062" stop-color="#218F2F"/>
    </linearGradient>
  </defs>
</svg>
