<svg width="142" height="142" viewBox="0 0 142 142" fill="none" xmlns="http://www.w3.org/2000/svg">
  <path d="M71 0C85.0425 1.67455e-07 98.7696 4.16407 110.445 11.9656C122.121 19.7672 131.222 30.8559 136.595 43.8294C141.969 56.803 143.375 71.0787 140.636 84.8514C137.896 98.624 131.134 111.275 121.205 121.205C111.275 131.134 98.6241 137.896 84.8515 140.636C71.0788 143.375 56.8031 141.969 43.8296 136.595C30.856 131.222 19.7673 122.121 11.9657 110.446C4.16413 98.7697 2.64491e-05 85.0426 1.25942e-10 71.0001L5.60984 71.0001C5.60986 83.9331 9.44495 96.5756 16.6301 107.329C23.8153 118.082 34.0279 126.463 45.9764 131.413C57.9248 136.362 71.0726 137.657 83.7571 135.134C96.4415 132.611 108.093 126.383 117.238 117.238C126.383 108.093 132.611 96.4414 135.134 83.7569C137.657 71.0725 136.362 57.9247 131.413 45.9762C126.463 34.0278 118.082 23.8152 107.329 16.6301C96.5755 9.4449 83.9329 5.60984 71 5.60984V0Z" fill="#EEEEEE"/>
</svg>
